<svg width="317" height="152" viewBox="0 0 317 152" fill="none" xmlns="http://www.w3.org/2000/svg">
<path d="M91.8071 118.57C89.5085 121.72 87.0888 124.771 84.8587 127.359C84.6999 127.543 84.5346 127.736 84.3641 127.935C84.1761 128.156 83.9671 128.407 83.7388 128.682C82.1922 130.545 79.7266 133.516 76.4062 135.504C72.4118 137.923 67.8211 138.138 63.9127 136.19L63.9114 136.189C60.6288 134.552 58.5273 131.822 57.321 129.576C55.7396 126.631 54.7376 123.439 54.0498 120.436C47.9698 123.801 41.1423 124.271 35.8015 121.303C35.0119 120.864 34.2845 120.351 33.6279 119.771C33.3897 119.829 33.1528 119.881 32.9182 119.926C30.28 120.438 26.7578 120.376 23.6929 118.366C20.7227 116.419 19.8288 113.358 19.6183 111.152C15.4862 110.92 10.1805 109.447 6.71171 104.244C4.98519 101.654 4.2638 98.5353 4.88982 95.3738C5.40352 92.7795 6.68847 90.8372 7.76599 89.5663C7.10763 87.8612 6.21968 85.9408 5.22447 83.965C5.02746 83.5739 4.76131 83.0782 4.42169 82.4466L4.37852 82.3663C3.67014 81.0493 2.69732 79.2405 1.98661 77.5553C0.966714 75.137 0.637844 72.2261 1.6435 69.2869C2.58276 66.5418 4.36954 64.7004 5.84559 63.563L6.95336 62.7094L10.7711 61.3217C11.1869 59.994 11.7882 58.6902 12.5686 57.4747C15.0935 53.5423 19.5691 50.4924 25.9132 50.4922C27.5201 50.5764 29.0138 51.0247 30.3308 51.7539C30.7552 51.2205 31.1582 50.8013 31.4808 50.4925C32.2645 49.691 33.1817 48.911 33.999 48.2482L34.0136 48.2364L34.0282 48.2248C35.9038 46.7297 38.2434 45.4075 40.6934 44.2642L40.7156 44.2538L40.7379 44.2437C44.3194 42.6195 49.2334 40.9784 54.5999 40.3185C54.0619 39.4771 53.6311 38.5428 53.3067 37.5374C52.0053 34.3699 52.2708 31.0228 53.3435 28.33C54.1361 26.3405 55.5171 24.3597 57.4576 23.0035C57.3716 22.1672 57.3539 21.4071 57.3629 20.771C57.3875 19.0331 57.6311 17.2506 58.0549 15.5685C58.4685 13.9268 59.1517 11.9904 60.2804 10.1398C61.2645 8.52654 63.1723 6.02576 66.4537 4.56679C68.705 3.48636 72.3928 2.17112 76.4546 2.20576C78.6886 2.22481 81.6761 2.66171 84.5795 4.42228C87.696 6.31205 89.8712 9.22146 90.9652 12.6373L90.9828 12.6926C92.7053 11.9225 94.36 11.2529 95.9033 10.6905C98.1464 9.87292 100.598 9.19221 102.798 8.80068L102.837 8.79372L102.876 8.78744C104.997 8.44863 108.227 8.42587 111.446 9.52698C114.402 10.5308 116.543 12.5309 117.778 13.7992C118.692 14.7157 119.577 15.7459 120.413 16.7895C120.969 16.0943 121.55 15.4254 122.15 14.7844C127.888 8.65454 135.943 4.34552 143.989 2.27681C149.834 0.773983 156.293 1.34103 159.668 7.10215L165.586 18.3427C165.781 18.6905 165.956 19.0479 166.109 19.4129C168.506 17.1146 171.995 15.9408 175.674 16.8276L188.117 19.8277C194.174 21.288 196.882 27.3353 195.686 32.293L193.775 40.219C198.016 42.1089 201.767 44.8484 204.675 48.4419C207.926 45.6717 212.055 43.5754 217.101 42.6082C220.115 42.0304 223.178 41.9101 226.058 42.1786C226.649 41.9806 227.203 41.8444 227.689 41.7512L228.386 41.6176L230.186 41.4317L229.314 34.9345L229.295 34.6932C228.913 29.9047 232.139 24.2085 238.397 23.5309L244.548 22.7189C248.329 21.3005 252.124 20.4414 255.91 20.1395C258.779 19.9107 261.574 20.0269 264.211 20.4053C266.357 15.8313 271.406 13.8693 275.654 14.7491L275.873 14.7945L288.712 18.1268L289.049 18.2324C295.103 20.131 296.902 26.121 295.99 30.3289L295.953 30.5002L293.12 41.4958C294.416 41.2191 295.726 40.99 297.049 40.893C297.913 40.8296 299.823 40.7271 301.85 41.3628C305.872 42.624 308.23 45.8886 309.083 49.2602L311.541 58.9929C312.019 60.7552 312.167 62.9234 311.45 65.2083C310.643 67.7827 309.068 69.6044 307.258 70.808C307.722 71.581 308.153 72.3611 308.529 73.1292C308.971 74.0314 309.461 75.1678 309.795 76.4153C310.05 77.3671 310.627 79.811 309.757 82.5857C308.955 85.1435 307.394 86.804 306.214 87.8151L306.059 87.9473L301.571 91.4537C304.626 98.6764 305.28 106.966 302.853 115.066C297.318 133.543 277.853 144.035 259.376 138.5C255.811 137.432 252.53 135.837 249.602 133.823L247.058 140.629L247.047 140.659C246.649 141.701 245.855 143.535 244.25 145.169C242.325 147.128 239.762 148.273 236.959 148.368L236.949 148.368C236.87 148.371 236.424 148.388 235.923 148.364C235.503 148.343 234.955 148.291 234.326 148.16C227.787 147.04 221.614 144.353 217.465 137.972C216.77 136.902 216.162 135.771 215.631 134.585C213.842 136.717 210.38 139.537 205.299 138.793C203.92 138.592 202.618 138.061 202.075 137.835C201.206 137.474 200.188 136.986 199.105 136.364C198.285 135.892 197.366 135.309 196.414 134.601C193.335 135.073 190.294 135.065 187.395 134.64C186.898 134.568 186.404 134.482 185.913 134.384C185.926 134.648 185.928 134.919 185.919 135.197L185.919 135.215L185.918 135.232C185.833 137.581 184.885 140.638 182.011 142.932L181.981 142.956L176.275 147.431L176.206 147.484C175.091 148.323 172.176 150.356 168.108 149.922C167.912 149.901 167.77 149.88 167.724 149.873L167.718 149.872C167.666 149.864 167.617 149.857 167.572 149.85C167.51 149.839 167.457 149.83 167.414 149.822C167.262 149.795 167.12 149.766 166.998 149.74C166.747 149.686 166.473 149.62 166.18 149.542C165.593 149.384 164.863 149.159 164.039 148.846C162.412 148.227 160.254 147.204 158.077 145.552C157.757 145.309 157.438 145.054 157.123 144.786C155.26 147.099 152.394 148.614 149.032 148.542L137.435 148.294C131.77 148.172 127.317 143.525 127.438 137.859L127.499 134.991C114.689 139.229 99.1487 135.065 92.602 120.49C92.3137 119.848 92.0489 119.208 91.8071 118.57Z" fill="#5F64DB"/>
<path fill-rule="evenodd" clip-rule="evenodd" d="M191.157 89.5529L193.573 92.9164L196.283 89.7845L199.705 92.1185L200.112 91.0508C200.485 91.2511 200.845 91.4592 201.19 91.6736C201.635 91.286 202.233 91.1795 202.993 91.2907L203.309 91.3371L214.125 93.891C215.753 94.2587 216.076 95.1468 215.965 95.9067L215.918 96.2234C215.825 96.5287 215.731 96.8334 215.638 97.1371C214.008 102.436 212.462 107.462 211.883 111.415C211.327 115.214 211.57 117.966 213.436 119.363C214.017 119.75 214.752 120.301 214.633 120.944C214.609 121.096 214.507 121.26 214.348 121.476L209.306 128.57C208.578 129.563 207.815 130.009 206.992 129.889C206.358 129.796 202.122 128.162 199.391 124.722C195.848 125.949 192.317 126.209 189.088 125.736C178.513 124.187 170.581 114.747 172.073 104.551C172.994 98.2622 177.939 90.2141 186.724 88.667L187.539 91.5691L191.157 89.5529ZM196.949 108.711C196.662 110.674 196.529 112.466 196.478 114.14C194.929 114.56 193.498 114.609 192.295 114.433C188.179 113.83 186.154 110.429 186.674 106.883C187.147 103.653 189.928 100.115 193.918 100.699C195.754 100.968 197.334 102.105 197.909 103.483C197.504 105.364 197.19 107.065 196.949 108.711Z" fill="#B7C3FF"/>
<path d="M135.913 84.6123L130.23 73.3735C130.109 73.2351 130.048 72.9969 130.007 72.838C129.701 71.6468 130.79 70.9434 131.267 70.8209L131.584 70.7392C136.985 69.3508 142.126 64.9808 140.84 59.9775C140.166 57.3568 138.124 55.3418 132.121 49.7733C127.599 45.6866 125.026 41.6068 124.025 37.7153C120.799 25.1674 133.277 14.424 146.619 10.9937C149.716 10.1974 151.386 10.1067 152.292 11.652L158.093 22.6911C158.234 22.9089 158.295 23.1472 158.336 23.306C158.663 24.5767 157.594 25.3594 157.117 25.482L156.641 25.6045C151.479 26.9316 147.124 30.0832 148.288 34.61C148.982 37.3101 151.927 40.5323 156.908 44.7552C161.509 48.8215 164.082 52.9013 165.103 56.8722C168.493 70.0554 154.689 81.9016 140.95 85.4339C140.156 85.6381 139.441 85.8219 138.627 85.9466C137.594 86.2121 136.417 85.5835 135.913 84.6123Z" fill="#E5E8F2"/>
<path d="M300.748 80.9797L293.641 86.5314C292.941 87.0499 292.338 87.2631 291.727 87.0716C291.422 86.9759 291.094 86.7388 290.804 86.3796C288.135 83.1279 281.976 76.0318 279.474 73.1009C279.185 72.7417 278.971 72.1383 279.144 71.5887C279.24 71.2834 279.457 71.0163 279.878 70.7457L286.101 66.7279C282.431 67.5221 279.143 68.1678 277.731 68.3955L277.307 68.4638L274.581 79.0787C274.352 79.8115 273.672 80.2689 272.939 80.0391L260.515 76.8806C259.843 76.6699 259.385 75.9899 259.554 75.2379L272.636 24.5415L272.674 24.4194C272.866 23.8087 273.588 23.4314 274.218 23.5619L286.623 26.7815L286.745 26.8198C287.416 27.0304 287.733 27.7333 287.583 28.4241L280.787 54.7991C283.904 53.6302 296.859 49.1076 299.546 49.9502C300.034 50.1034 300.507 50.5201 300.747 51.4672L303.23 61.3008C303.359 61.7438 303.367 62.1485 303.252 62.5149C303.06 63.1256 302.521 63.5603 301.674 63.6969C299.917 63.9509 295.843 64.7524 291.547 65.6185C295.4 68.3026 302.267 77.6329 301.558 79.8924C301.443 80.2588 301.206 80.5869 300.748 80.9797Z" fill="#E5E8F2"/>
<path d="M242.081 129.277L239.028 137.449C238.557 138.681 238.003 139.34 237.044 139.373C236.852 139.379 236.66 139.386 236.466 139.328C226.098 137.629 222.326 132.122 221.46 115.95L216.654 115.856C215.948 115.816 215.351 115.196 215.327 114.492L215.736 103.848C215.776 103.143 216.332 102.547 217.1 102.521L221.202 102.639C221.248 100.204 221.288 97.5529 221.387 94.796C221.425 94.0263 221.478 92.8313 223.141 92.7751L223.465 92.7695L235.502 92.9281C236.592 92.9553 237.173 93.5861 237.209 94.6734C237.172 97.3642 237.064 100.182 236.963 102.875L241.383 102.962C242.087 102.938 242.67 103.566 242.695 104.334L242.303 114.989C242.261 115.631 241.773 116.217 241.07 116.24L236.709 116.203C236.906 122.024 237.822 126.411 240.678 127.531C241.392 127.827 242.168 128.057 242.192 128.761C242.196 128.889 242.139 129.083 242.081 129.277Z" fill="#E5E8F2"/>
<path fill-rule="evenodd" clip-rule="evenodd" d="M237.527 56.2718L234.663 59.2634L238.238 61.354L236.57 65.1448L240.645 65.8866L240.374 70.0193L244.456 69.3228L245.615 73.299L247.076 72.4663C247.6 73.0601 248.212 73.4793 248.93 73.7004C249.619 73.8942 250.383 74.1388 250.503 74.7673C250.527 74.8931 250.501 75.0937 250.423 75.3692L247.984 83.7218C247.623 84.8988 247.103 85.585 246.286 85.7417C245.658 85.8622 241.065 85.7 237.356 83.3483C234.413 85.672 231.163 87.077 227.958 87.6916C217.461 89.704 206.867 83.3938 204.927 73.2741C203.481 65.7315 206.739 53.8332 219.184 51.4472C222.327 50.8447 225.539 50.9457 228.196 51.5442C228.488 51.0319 229.018 50.7349 229.772 50.5903L230.087 50.5301L238.045 49.708L238.597 51.2528L234.883 53.0844L237.527 56.2718ZM229.788 69.0291C230.162 70.9776 230.625 72.7134 231.127 74.3115C229.802 75.2172 228.467 75.7338 227.273 75.9627C223.187 76.746 220.158 74.1989 219.483 70.679C218.868 67.4734 220.333 63.2175 224.293 62.4583C226.116 62.1088 227.981 62.6634 228.977 63.7759C229.213 65.6857 229.475 67.3948 229.788 69.0291Z" fill="#E5E8F2"/>
<path d="M171.179 140.295L176.785 135.897C177.211 135.558 177.303 135.188 177.313 134.905C177.334 134.258 176.713 133.685 176.356 133.378C173.529 131.056 173.029 128.101 173.069 124.37C173.134 113.165 164.424 106.213 153.523 105.98C152.885 105.966 152.189 105.951 151.492 105.994L151.814 90.9177C151.828 90.2799 151.319 89.6888 150.681 89.6752L139.083 89.427C138.387 89.4122 137.853 89.9809 137.84 90.6187L137.664 98.8017L141.114 98.7334L140.232 102.78L144.151 104.119L141.938 107.62L145.163 110.219L141.886 112.751L144.027 116.296L140.082 117.556L140.881 121.619L137.179 121.47L136.825 138.052C136.81 138.748 137.32 139.281 138.016 139.296L149.614 139.544C150.252 139.557 150.785 139.047 150.799 138.351L151.25 117.302L151.54 117.308C155.715 117.397 158.909 119.96 158.759 126.977C158.507 138.748 169.174 140.954 169.446 140.972C169.984 141.031 170.524 140.789 171.179 140.295Z" fill="#E5E8F2"/>
<path d="M108.234 19.8682C102.404 17.5367 75.3915 31.7221 61.2051 50.961C49.6958 50.6502 39.9853 57.0877 39.4151 59.0264C38.8449 60.965 40.8406 59.4255 46.8276 67.9214C51.6172 74.7181 50.8 78.432 49.7926 79.4393C47.3408 83.4877 39.5291 80.6367 37.6475 81.7771C35.7658 82.9175 35.8229 85.7685 35.2527 86.5668C34.7965 87.2054 31.9075 87.6311 30.5201 87.7642C26.5287 76.7024 17.3838 72.794 12.73 72.654C12.2565 73.0189 18.8231 83.0937 20.3136 90.6722C20.4759 91.4975 21.8409 91.8878 22.3487 91.8449C22.4352 91.7978 22.655 93.1138 22.5405 93.1583C20.1261 94.1482 15.5579 96.5193 16.6009 98.0838C17.9047 100.04 23.6995 101.488 30.798 97.5044C33.0918 98.9289 39.1569 102.227 45.0676 104.023C43.3533 106.196 40.3159 110.76 41.8805 111.629C43.8362 112.716 49.4861 112.788 54.6289 106.196C58.1782 107.355 59.482 107.428 63.7315 107.124C64.8975 114.508 66.4521 125.974 70.1445 126.557C72.0878 126.751 81.4159 115.869 87.4402 106.541C100.072 99.3503 108.623 95.2693 116.785 84.581C121.837 85.9413 132.215 88.5065 133.303 87.8846C134.663 87.1073 133.886 70.7832 125.724 62.0382C127.473 44.9368 114.064 22.1998 108.234 19.8682Z" fill="#E5E8F2"/>
<path d="M91.009 82.0128C90.8709 91.9575 91.2853 94.7209 86.7271 107.014L69.8756 126.352L66.4224 120.689L63.9748 100.827L63.9267 100.834C56.5434 101.882 55.2088 102.071 53.9384 103.89C52.6653 105.712 48.4659 111.849 48.4659 111.849L41.5595 110.744L44.7364 103.837L31.0619 97.6215L19.0448 100.108L17.2491 96.3783L21.2548 92.5108L13.3816 72.4823L25.5368 79.1124L31.3381 87.6763L35.4819 86.5713L37.5538 82.0131L40.0401 81.875H46.5321L50.6759 77.593L48.0515 70.6867L41.1451 61.7084L39.3495 58.2552L46.8083 53.8352L61.5879 50.7964L66.9749 43.4756L84.3789 29.801L99.2967 21.3753L108.137 20.8232C100.264 25.3814 94.7385 39.8844 92.2522 47.3432C89.7659 54.8021 91.1472 72.068 91.009 82.0128Z" fill="#B7C3FF"/>
<path fill-rule="evenodd" clip-rule="evenodd" d="M125.336 60.2861C126.162 60.3518 126.778 61.0746 126.713 61.9004C126.2 68.3358 124.857 72.7835 123.093 76.4347C121.812 79.0869 120.292 81.3332 118.81 83.5246C118.291 84.2914 117.777 85.0514 117.279 85.8198C116.829 86.515 115.9 86.7135 115.205 86.263C114.509 85.8126 114.311 84.8838 114.761 84.1885C115.327 83.3159 115.882 82.4951 116.423 81.6949C117.867 79.5597 119.213 77.5705 120.392 75.1298C121.978 71.8454 123.236 67.7646 123.722 61.6622C123.788 60.8364 124.511 60.2203 125.336 60.2861Z" fill="#7276CC"/>
<path fill-rule="evenodd" clip-rule="evenodd" d="M74.1835 64.9804C74.9706 64.7222 75.8181 65.1509 76.0764 65.9381C77.1063 69.0771 78.3379 69.8839 78.5029 69.974C78.9351 70.2101 82.4413 71.9515 84.1836 72.8137C84.9261 73.1811 85.2301 74.0809 84.8627 74.8234C84.4953 75.5659 83.5955 75.8699 82.853 75.5025C81.1617 74.6656 77.5671 72.8812 77.0648 72.6069C76.0616 72.0589 74.426 70.5312 73.2259 66.8733C72.9676 66.0862 73.3964 65.2387 74.1835 64.9804ZM71.1244 75.4753C71.789 74.9807 72.7287 75.1186 73.2233 75.7831C73.9026 76.696 75.144 77.6649 76.4291 78.3754C77.0587 78.7235 77.6472 78.9806 78.1181 79.1298C78.5552 79.2682 78.7375 79.2642 78.7379 79.2707C78.738 79.2721 78.7291 79.2741 78.7121 79.2782C79.5127 79.0835 80.3215 79.5714 80.5217 80.372C80.7226 81.1756 80.2339 81.99 79.4302 82.191C78.6772 82.3792 77.836 82.1873 77.2122 81.9897C76.5087 81.7669 75.7359 81.4201 74.9775 81.0008C73.4867 80.1766 71.8454 78.9567 70.8166 77.5742C70.322 76.9096 70.4598 75.9699 71.1244 75.4753Z" fill="#7276CC"/>
<path fill-rule="evenodd" clip-rule="evenodd" d="M90.8512 96.5655C91.6254 96.8604 92.0139 97.727 91.719 98.5012L88.4864 106.987C88.1915 107.761 87.3249 108.15 86.5507 107.855C85.7765 107.56 85.388 106.693 85.6829 105.919L88.9155 97.4332C89.2104 96.6591 90.0771 96.2706 90.8512 96.5655Z" fill="#7276CC"/>
<path d="M81.3542 15.8398C79.8539 11.155 73.9676 12.74 71.2119 14.1181C68.7546 15.0669 67.6525 20.8538 68.5711 23.1884C69.4896 25.5231 75.6516 28.0874 78.5986 25.9441C81.5456 23.8008 83.2296 21.6957 81.3542 15.8398Z" fill="#E5E8F2"/>
<path fill-rule="evenodd" clip-rule="evenodd" d="M76.741 14.2053C75.0586 14.191 73.139 14.8315 71.8828 15.4597L71.8189 15.4917L71.7522 15.5174C71.5702 15.5877 71.262 15.8179 70.914 16.3884C70.5787 16.9382 70.2883 17.6733 70.0801 18.5C69.8733 19.321 69.7613 20.177 69.7505 20.9409C69.7393 21.7289 69.8373 22.3099 69.9669 22.6393C70.0415 22.829 70.3266 23.2183 70.9801 23.6828C71.5973 24.1216 72.4076 24.5297 73.2924 24.8205C75.1734 25.4386 76.8401 25.3682 77.7163 24.731C79.141 23.6949 79.9812 22.855 80.3751 21.7716C80.7677 20.6919 80.8165 19.0787 79.9257 16.2973C79.6534 15.447 79.2223 14.9719 78.7463 14.6832C78.2399 14.3761 77.5665 14.2124 76.741 14.2053ZM80.3018 12.118C81.4376 12.8067 82.3049 13.8902 82.7828 15.3823C83.7674 18.4568 83.9118 20.8241 83.1945 22.7968C82.4786 24.7657 81.0032 26.05 79.4809 27.1572C77.41 28.6632 74.5223 28.3824 72.3559 27.6705C71.217 27.2963 70.1304 26.7596 69.2419 26.1279C68.3895 25.522 67.5599 24.7153 67.1752 23.7376C66.8455 22.8996 66.7368 21.8818 66.7508 20.8985C66.765 19.8911 66.9099 18.8034 67.171 17.7672C67.4306 16.7367 67.8191 15.7013 68.3528 14.8263C68.8617 13.992 69.5898 13.1628 70.5984 12.748C72.1012 12.0055 74.4713 11.1858 76.7666 11.2054C77.9447 11.2155 79.1965 11.4477 80.3018 12.118Z" fill="#4550B7"/>
<path d="M64.6657 30.5676C63.6622 30.9256 62.9813 32.4315 63.5189 33.6496C63.949 35.0828 65.1316 35.2626 66.8877 34.6892C68.6438 34.1158 69.038 32.8974 68.608 31.2847C68.1779 29.672 65.6692 30.2096 64.6657 30.5676Z" fill="#E5E8F2"/>
<path fill-rule="evenodd" clip-rule="evenodd" d="M66.8101 31.6865C66.2578 31.6711 65.5751 31.8357 65.1697 31.9803L65.1682 31.9814C65.1511 31.9921 65.0126 32.0783 64.9079 32.3412C64.803 32.6045 64.8108 32.8618 64.8912 33.0439L64.9288 33.1292L64.9556 33.2185C65.0089 33.396 65.0599 33.4561 65.067 33.4639C65.0709 33.4657 65.0795 33.469 65.0942 33.473C65.2341 33.5105 65.6251 33.5235 66.4221 33.2633C67.0294 33.065 67.1625 32.8425 67.2036 32.7528C67.263 32.6228 67.3236 32.3273 67.1753 31.7357C67.1124 31.7162 66.9964 31.6917 66.8101 31.6865ZM68.6731 29.1268C69.3198 29.4816 69.8374 30.0734 70.0573 30.8982C70.3181 31.8761 70.3988 32.9795 69.9317 34.0006C69.4442 35.0666 68.5021 35.74 67.3533 36.1151C66.3943 36.4283 65.3158 36.6381 64.3179 36.3708C63.1894 36.0685 62.4574 35.2464 62.1092 34.1673C61.6941 33.1571 61.7788 32.0897 62.1209 31.2309C62.4637 30.3705 63.1516 29.5151 64.1617 29.1548C64.7598 28.9414 65.8332 28.6582 66.8936 28.6877C67.4272 28.7025 68.0756 28.799 68.6731 29.1268Z" fill="#4550B7"/>
<path d="M31.4691 69.1764C29.6784 69.7074 29.5458 71.9284 30.1427 73.4205C30.4558 74.854 32.4308 75.2118 33.7241 74.8802C35.0175 74.5486 35.747 72.658 35.4486 70.8009C35.1501 68.9439 33.2599 68.6454 31.4691 69.1764Z" fill="#E5E8F2"/>
<path fill-rule="evenodd" clip-rule="evenodd" d="M33.5514 70.5187C33.207 70.4058 32.6187 70.4002 31.8956 70.6146C31.6433 70.6894 31.4676 70.8524 31.3737 71.2683C31.2681 71.7362 31.3316 72.354 31.5354 72.8635L31.5816 72.9789L31.6081 73.1005C31.6081 73.1007 31.6082 73.101 31.6083 73.1014C31.6111 73.1164 31.638 73.2578 32.0322 73.3867C32.4407 73.5203 32.966 73.5261 33.3516 73.4273C33.3728 73.4218 33.5917 73.3392 33.7959 72.8424C33.9894 72.3718 34.0765 71.7167 33.9676 71.039C33.9327 70.8223 33.8665 70.7254 33.8267 70.68C33.7834 70.6309 33.7056 70.5692 33.5514 70.5187ZM34.4855 67.6678C35.7191 68.0719 36.6857 69.0459 36.9296 70.563C37.1191 71.7423 36.9907 72.9611 36.5706 73.983C36.1613 74.9786 35.3688 76.0071 34.0967 76.3333C33.1889 76.566 32.0802 76.5588 31.0995 76.238C30.1448 75.9257 29.0574 75.2112 28.7081 73.87C28.3452 72.9054 28.1975 71.7147 28.4473 70.6079C28.7182 69.4075 29.5042 68.1945 31.0427 67.7384C32.1104 67.4218 33.3625 67.2999 34.4855 67.6678Z" fill="#4550B7"/>
<path d="M25.6989 62.5771C25.5663 61.4894 24.693 61.1291 24.273 61.085C21.6863 61.0851 20.9568 63.4725 21.2553 64.5337C21.5537 65.5949 23.7756 65.5949 24.5383 65.3628C25.301 65.1306 25.8648 63.9368 25.6989 62.5771Z" fill="#E5E8F2"/>
<path fill-rule="evenodd" clip-rule="evenodd" d="M24.3516 59.585L24.4299 59.5932C25.2783 59.6824 26.942 60.3791 27.1879 62.3956C27.3007 63.3203 27.1724 64.2294 26.8432 64.9892C26.5311 65.7093 25.9355 66.5055 24.975 66.7978C24.3374 66.9918 23.3596 67.0461 22.4993 66.9165C22.0554 66.8496 21.5338 66.7188 21.0587 66.4549C20.5745 66.1861 20.0282 65.7112 19.8113 64.9398C19.5293 63.9372 19.7553 62.6362 20.42 61.601C21.149 60.4656 22.4412 59.585 24.2729 59.585L24.3516 59.585ZM22.7006 63.8998C22.7657 63.9174 22.8471 63.935 22.9461 63.95C23.1773 63.9848 23.4347 63.9941 23.6704 63.9823C23.7862 63.9765 23.8873 63.966 23.968 63.9539C23.9832 63.9516 23.9973 63.9493 24.0102 63.9471C24.0306 63.9175 24.0587 63.8697 24.0905 63.7964C24.1923 63.5613 24.263 63.1936 24.21 62.7587C24.2001 62.678 24.1816 62.6438 24.1768 62.6355C24.171 62.6253 24.1642 62.6171 24.1527 62.6078C24.1447 62.6014 24.1351 62.595 24.1245 62.5892C23.4691 62.6276 23.1381 62.9202 22.9444 63.2219C22.8248 63.4083 22.7483 63.6181 22.7136 63.8117C22.708 63.8433 22.7037 63.8727 22.7006 63.8998ZM23.9763 63.9883C23.9763 63.9882 23.9777 63.9867 23.9809 63.9841C23.978 63.9871 23.9764 63.9884 23.9763 63.9883Z" fill="#4550B7"/>
<path d="M30.2509 109.783C29.4605 109.265 29.649 108 29.842 107.433C30.001 107.058 30.4144 106.2 30.796 105.763C31.2729 105.218 33.3512 106.036 33.6918 106.684C34.0325 107.331 33.7941 108.796 33.283 109.375C32.772 109.954 31.2389 110.431 30.2509 109.783Z" fill="#E5E8F2"/>
<path fill-rule="evenodd" clip-rule="evenodd" d="M33.9679 104.924C34.2734 105.119 34.7456 105.465 35.0192 105.985C35.4166 106.74 35.3859 107.663 35.289 108.286C35.1885 108.931 34.9357 109.769 34.4078 110.367C33.8635 110.984 33.0057 111.362 32.2314 111.512C31.4298 111.667 30.3596 111.648 29.4284 111.038C28.467 110.407 28.2216 109.393 28.1804 108.718C28.1384 108.028 28.2782 107.372 28.4219 106.95L28.4397 106.898L28.4612 106.847C28.5578 106.619 28.7211 106.268 28.9162 105.907C29.1 105.568 29.3627 105.124 29.6671 104.776C30.255 104.104 31.0854 104.073 31.4586 104.087C31.9233 104.105 32.392 104.221 32.7898 104.36C33.1965 104.502 33.6093 104.696 33.9679 104.924ZM31.6599 107.147C31.7034 107.16 31.7503 107.175 31.8002 107.192C32.0116 107.266 32.2088 107.362 32.3501 107.451C32.3538 107.552 32.3471 107.68 32.3247 107.824C32.299 107.989 32.2578 108.141 32.2122 108.258C32.1888 108.318 32.1694 108.356 32.1583 108.377C32.1408 108.389 32.109 108.409 32.0593 108.434C31.9534 108.487 31.8137 108.537 31.6602 108.567C31.4356 108.61 31.2763 108.596 31.1777 108.571C31.1766 108.56 31.1757 108.548 31.1749 108.535C31.1691 108.44 31.1757 108.323 31.1951 108.2C31.2103 108.103 31.2305 108.02 31.2481 107.96C31.3153 107.807 31.4258 107.573 31.5549 107.335C31.5913 107.267 31.6264 107.205 31.6599 107.147ZM32.4728 107.539C32.4775 107.543 32.4768 107.543 32.4719 107.538C32.4722 107.538 32.4725 107.539 32.4728 107.539Z" fill="#4550B7"/>
<path fill-rule="evenodd" clip-rule="evenodd" d="M76.2111 15.3786C76.9665 15.0386 77.8545 15.3755 78.1945 16.1309L78.9239 17.7519C79.2639 18.5074 78.9271 19.3954 78.1716 19.7353C77.4161 20.0753 76.5281 19.7385 76.1882 18.983L75.4587 17.362C75.1188 16.6066 75.4556 15.7185 76.2111 15.3786Z" fill="#B7C3FF"/>
<path fill-rule="evenodd" clip-rule="evenodd" d="M78.3703 20.7441C79.1714 20.9551 79.6499 21.7755 79.4389 22.5767L79.2965 23.1177C79.0855 23.9188 78.2651 24.3972 77.464 24.1863C76.6628 23.9753 76.1844 23.1549 76.3954 22.3538L76.5378 21.8128C76.7488 21.0116 77.5692 20.5332 78.3703 20.7441Z" fill="#B7C3FF"/>
<path d="M29.602 94.3009C29.3056 93.4853 26.0818 93.1792 24.507 93.128L16.4785 96.7099L16.9725 98.1921L22.8395 99.4272C25.104 98.6861 29.6885 97.0989 29.9108 96.679C30.1887 96.154 29.9726 95.3203 29.602 94.3009Z" fill="#B7C3FF"/>
<path d="M36.6733 87.4151L34.9441 87.3536L36.241 82.2585L40.595 81.3321L47.4192 82.629L36.6733 87.4151Z" fill="#B7C3FF"/>
<path d="M57.1291 66.403C58.3909 68.5573 54.6362 76.6822 50.266 79.7598L50.3891 74.9586L47.2192 68.2494L39.9253 58.4316C44.8802 58.3085 55.8673 64.2487 57.1291 66.403Z" fill="#B7C3FF"/>
<path d="M54.0821 105.236C52.5 104.864 48.1386 104.566 43.3491 106.353L40.9296 110.695L43.3801 112.029H47.9401L50.949 110.23L54.0821 105.236Z" fill="#B7C3FF"/>
<path fill-rule="evenodd" clip-rule="evenodd" d="M64.2856 100.829C65.0963 101 65.6154 101.795 65.4451 102.606C65.4131 102.758 65.39 103.103 65.4022 103.64C65.4135 104.142 65.4522 104.707 65.4975 105.24C65.5316 105.641 65.5679 106.006 65.5979 106.308C65.6078 106.408 65.617 106.502 65.6253 106.587C65.6401 106.739 65.6556 106.905 65.6608 107.021C65.6621 107.051 65.6642 107.105 65.6627 107.167C65.6619 107.196 65.6599 107.253 65.6515 107.322C65.6514 107.323 65.6512 107.324 65.6511 107.326C65.6466 107.364 65.6234 107.564 65.5184 107.787C65.4676 107.895 65.31 108.204 64.9459 108.428C64.4738 108.719 63.94 108.7 63.5368 108.516C63.2234 108.374 63.0459 108.163 62.985 108.087C62.9072 107.989 62.8579 107.903 62.8331 107.856C62.7549 107.711 62.7153 107.576 62.7089 107.554C62.7086 107.552 62.7084 107.552 62.7082 107.551C62.652 107.364 62.6341 107.174 62.6501 106.99C62.647 106.956 62.6433 106.918 62.6393 106.876C62.632 106.801 62.6235 106.715 62.614 106.62C62.5838 106.316 62.5444 105.919 62.5083 105.494C62.4608 104.936 62.4164 104.3 62.4029 103.708C62.3903 103.149 62.4007 102.505 62.5092 101.989C62.6796 101.178 63.4749 100.659 64.2856 100.829Z" fill="#7276CC"/>
<path fill-rule="evenodd" clip-rule="evenodd" d="M88.8966 29.032C79.7911 34.6003 69.712 42.7945 62.8148 52.148L62.1951 52.9885L61.1511 52.9604C55.7711 52.8151 50.772 54.2508 47.0443 55.967C45.1832 56.8238 43.6796 57.7322 42.6361 58.509C42.2409 58.8032 41.9292 59.0656 41.6964 59.2858C41.7523 59.3288 41.8171 59.3791 41.8942 59.4394C43.233 60.4861 45.3624 62.3702 48.4625 66.7694C50.9756 70.3357 52.1383 73.2593 52.4644 75.5722C52.7638 77.6956 52.37 79.5241 51.3875 80.6594C50.4453 82.0974 49.0655 82.8733 47.6805 83.2736C46.2772 83.6792 44.7681 83.7319 43.4548 83.6982C42.7864 83.681 42.1317 83.6397 41.5353 83.5993C41.4324 83.5923 41.3318 83.5854 41.2333 83.5786C40.7468 83.5452 40.3129 83.5154 39.9099 83.4984C39.4222 83.4778 39.063 83.4805 38.8043 83.5059C38.7129 83.5148 38.6527 83.525 38.6175 83.5321C38.3575 83.7227 38.1084 84.1089 37.8708 84.8855C37.7839 85.1695 37.7222 85.4166 37.6533 85.6932C37.618 85.8347 37.5808 85.9838 37.5373 86.1496L37.5322 86.1692C37.4426 86.5111 37.2643 87.1915 36.8801 87.7293C36.5868 88.14 36.2162 88.388 35.9819 88.5244C35.7225 88.6755 35.4515 88.7911 35.2091 88.8807C34.7237 89.06 34.1713 89.2007 33.6522 89.3113C32.604 89.5345 31.4556 89.6837 30.711 89.7551L29.1657 89.9033L28.6388 88.4431C25.8452 80.701 20.3734 76.8544 16.1931 75.3848C16.6145 76.1896 17.0908 77.104 17.5715 78.0584C19.2751 81.4406 21.3119 85.8534 22.1791 89.8198C22.2067 89.828 22.2342 89.8351 22.2601 89.8407C22.2683 89.8424 22.2756 89.8439 22.2819 89.8451C22.5525 89.8357 22.8185 89.8811 23.0619 89.9727C23.4867 90.1326 23.7451 90.3932 23.8554 90.5163C24.0747 90.7608 24.1834 91.0047 24.2127 91.0705L24.2134 91.0721C24.2949 91.2551 24.3428 91.4291 24.3652 91.514C24.4195 91.72 24.464 91.9537 24.496 92.1581C24.5278 92.3614 24.5586 92.6075 24.569 92.837C24.5736 92.9388 24.5788 93.1214 24.5547 93.3236C24.5438 93.4153 24.5153 93.6195 24.4241 93.8559C24.3669 94.004 24.0938 94.687 23.2931 95.0114C22.1559 95.4781 20.5605 96.2529 19.4149 97.0485C19.2155 97.1869 19.0476 97.3139 18.9081 97.4278C18.9782 97.4622 19.0552 97.4971 19.1396 97.5322C19.7295 97.7778 20.562 97.9777 21.6133 98.0234C23.7051 98.1144 26.5623 97.5882 29.8192 95.7604L30.8495 95.1821L31.8532 95.8055C34.06 97.176 39.9619 100.381 45.6491 102.11L48.4525 102.962L46.6378 105.262C45.8232 106.295 44.7212 107.865 44.025 109.226C43.848 109.572 43.7168 109.867 43.6243 110.11C45.3229 110.382 49.1529 109.964 53.0521 104.966L53.9154 103.86L55.2497 104.295C56.9711 104.857 58.0229 105.114 59.1088 105.218C60.2245 105.325 61.4615 105.281 63.5887 105.129L65.4206 104.998L65.707 106.812C65.7786 107.265 65.8513 107.731 65.9254 108.207C66.4636 111.657 67.0786 115.601 67.9272 118.892C68.4116 120.77 68.941 122.306 69.5107 123.367C69.8063 123.917 70.0476 124.221 70.2135 124.387C70.528 124.168 70.9474 123.827 71.468 123.349C72.6284 122.285 74.1074 120.717 75.7468 118.814C79.0195 115.016 82.8016 110.037 85.7601 105.456L86.0256 105.045L86.4508 104.803C87.8002 104.035 89.0978 103.304 90.3488 102.6C100.919 96.6515 108.165 92.5739 115.195 83.3672L116.009 82.3011L117.305 82.6498C119.812 83.325 123.637 84.2977 126.957 85.0222C128.622 85.3856 130.125 85.6786 131.26 85.8428C131.459 85.8716 131.641 85.8956 131.807 85.9151C131.83 85.596 131.843 85.2098 131.841 84.7583C131.832 83.1246 131.623 80.8654 131.123 78.3382C130.111 73.2357 127.98 67.3865 124.262 63.4029L123.642 62.7387L123.734 61.8348C124.555 53.8075 121.807 44.2391 118.015 36.2743C116.132 32.3192 114.031 28.8421 112.074 26.2378C111.094 24.9349 110.171 23.8778 109.351 23.0958C108.504 22.2887 107.875 21.8786 107.491 21.7253C107.263 21.6342 106.635 21.5378 105.423 21.7229C104.272 21.8987 102.818 22.2926 101.106 22.9166C97.6885 24.1622 93.4433 26.2516 88.8966 29.032ZM21.773 91.3115C21.7759 91.3103 21.7789 91.3091 21.7818 91.3079L21.7871 91.3058C21.7824 91.3077 21.7777 91.3096 21.773 91.3115ZM19.1419 92.5516C18.7868 92.1838 18.4765 91.6955 18.3512 91.0582C17.6639 87.5635 15.766 83.3656 13.9991 79.8578C13.44 78.7479 12.9237 77.7633 12.4672 76.8927C12.1984 76.3802 11.9504 75.9072 11.7265 75.4715C11.4412 74.9159 11.1858 74.4021 11.016 73.9994C10.9367 73.8114 10.8358 73.555 10.7736 73.2902C10.7449 73.1675 10.694 72.9211 10.7081 72.622C10.7197 72.3762 10.7992 71.617 11.5093 71.0699L12.0756 70.6335L12.7901 70.655C17.9882 70.8114 27.2682 74.8408 31.8133 85.5831C32.1502 85.5299 32.4941 85.4682 32.819 85.399C33.1566 85.3271 33.4387 85.2544 33.6546 85.1859C33.659 85.1695 33.6636 85.1524 33.6683 85.1346C33.6893 85.0543 33.7143 84.9544 33.7426 84.8411C33.8219 84.524 33.9273 84.1025 34.0458 83.7152C34.3724 82.6477 35.0133 81.0351 36.6109 80.0668C37.2273 79.6933 37.9092 79.5745 38.4138 79.525C38.952 79.4722 39.5309 79.4788 40.0785 79.5019C40.5395 79.5214 41.0371 79.5556 41.5235 79.5891C41.6182 79.5956 41.7125 79.6021 41.806 79.6084C42.3951 79.6484 42.9788 79.6846 43.5576 79.6995C44.739 79.7299 45.7601 79.665 46.5698 79.4309C47.34 79.2083 48.1701 78.67 48.4534 78.2021C48.8139 77.4463 48.6226 76.975 48.5036 76.1307C48.2928 74.6357 47.4693 72.3041 45.1928 69.0736C42.3058 64.9769 40.4439 63.3829 39.4305 62.5906C39.3504 62.528 39.2128 62.4228 39.0751 62.3174C38.9196 62.1985 38.7639 62.0794 38.6901 62.021C38.4827 61.8569 38.1666 61.5989 37.9046 61.2576C37.593 60.8519 37.3728 60.3537 37.3296 59.7626C37.2921 59.249 37.3997 58.7906 37.4964 58.4621C37.7077 57.7435 38.203 57.144 38.5924 56.7338C39.0363 56.266 39.6013 55.7815 40.2475 55.3004C41.5449 54.3346 43.2951 53.2896 45.3715 52.3335C49.2818 50.5333 54.4926 48.9835 60.2124 48.9507C67.4703 39.4161 77.6671 31.2105 86.8098 25.6196C91.5182 22.7402 96.0059 20.518 99.7362 19.1584C101.598 18.4797 103.321 17.9976 104.819 17.7688C106.256 17.5493 107.747 17.5195 108.977 18.0113C110.051 18.4409 111.115 19.2514 112.111 20.2007C113.133 21.1753 114.201 22.4107 115.271 23.8344C117.413 26.6835 119.647 30.3966 121.627 34.555C125.432 42.5472 128.44 52.4942 127.792 61.3493C131.845 66.0535 134.018 72.3732 135.046 77.5606C135.59 80.3047 135.831 82.8188 135.84 84.7378C135.845 85.6888 135.794 86.5529 135.673 87.2504C135.614 87.5936 135.526 87.9684 135.384 88.3176C135.275 88.5852 134.984 89.2278 134.295 89.6212C133.865 89.8671 133.43 89.9292 133.212 89.9531C132.945 89.9824 132.672 89.9844 132.421 89.976C131.917 89.9592 131.32 89.8931 130.687 89.8016C129.412 89.6171 127.801 89.3005 126.104 88.9302C123.232 88.3035 120.013 87.5006 117.548 86.8534C110.238 96.0145 102.478 100.375 92.3367 106.074C91.2057 106.709 90.0451 107.361 88.8522 108.039C85.8297 112.668 82.0625 117.612 78.7771 121.425C77.0886 123.385 75.4947 125.084 74.1712 126.298C73.5147 126.9 72.8774 127.426 72.2959 127.808C72.0058 127.998 71.6825 128.184 71.3418 128.321C71.0299 128.447 70.5291 128.606 69.9455 128.547L69.8888 128.542L69.8326 128.533C67.9196 128.231 66.724 126.633 65.9867 125.259C65.19 123.776 64.5656 121.875 64.0539 119.891C63.1891 116.536 62.5579 112.574 62.037 109.234C60.7937 109.295 59.7473 109.298 58.7263 109.2C57.5928 109.091 56.538 108.862 55.3136 108.504C49.9475 114.604 43.8058 114.987 40.9092 113.377C39.3749 112.525 39.372 110.896 39.5014 110.07C39.6428 109.168 40.0456 108.222 40.4639 107.404C40.8652 106.62 41.3567 105.81 41.8582 105.053C37.3648 103.404 33.128 101.191 30.7387 99.8004C27.2901 101.532 24.0824 102.135 21.4396 102.02C19.9919 101.957 18.6877 101.677 17.6025 101.225C16.5496 100.787 15.5572 100.124 14.9368 99.1933C14.0151 97.8107 14.5731 96.4175 15.1091 95.6492C15.6337 94.8972 16.4163 94.2609 17.1334 93.7629C17.7554 93.331 18.4504 92.9208 19.1419 92.5516Z" fill="#4550B7"/>
<path d="M81.4028 63.6134C80.3397 61.5597 81.9934 58.9468 84.1984 57.7804C86.1671 56.8473 87.9784 56.8 89.1596 58.5268C90.3409 60.2535 88.4115 62.8204 86.7184 64.2204C85.0253 65.6205 82.4659 65.6672 81.4028 63.6134Z" fill="#FEC5D6"/>
<path fill-rule="evenodd" clip-rule="evenodd" d="M91.3949 51.0003C91.8424 51.4415 92.3454 52.0248 92.5711 52.5968C92.7791 53.1239 92.8231 53.7073 92.8121 54.1957C92.8006 54.7101 92.7242 55.2511 92.6023 55.7609C92.481 56.2679 92.3037 56.7893 92.0665 57.2519C91.8482 57.6778 91.4934 58.2247 90.9328 58.5734C90.1623 59.0528 89.1592 59.2159 88.3452 59.1883C87.918 59.1738 87.4517 59.1048 87.0146 58.9417C86.6037 58.7884 86.0728 58.4955 85.7234 57.9377C85.2165 57.1655 84.5478 55.9179 84.1484 54.5935C83.775 53.3554 83.4869 51.5568 84.449 50.1215C85.1296 49.1061 86.1545 48.7249 87.1537 48.7713C88.0521 48.813 88.9028 49.1887 89.5703 49.5844C90.2615 49.9941 90.8975 50.5099 91.3949 51.0003Z" fill="#4550B7"/>
<path fill-rule="evenodd" clip-rule="evenodd" d="M113.366 34.7894C113.485 34.9506 113.545 35.0996 113.571 35.1716C113.855 35.9379 114.148 36.6237 114.456 37.3451C114.674 37.8549 114.899 38.3825 115.134 38.9688L115.147 39.0019C115.231 39.2118 115.327 39.4496 115.419 39.71C115.7 39.8912 116.034 40.0638 116.438 40.2551C116.493 40.2813 116.56 40.3146 116.614 40.3419C116.628 40.3488 116.641 40.3553 116.653 40.3612C116.714 40.3917 116.773 40.4207 116.833 40.4484C117.188 40.2161 117.638 40.1347 118.077 40.2631C118.872 40.4957 119.328 41.3288 119.095 42.1239C118.9 42.7926 118.412 43.3011 117.744 43.496C117.206 43.6529 116.706 43.5594 116.419 43.4853C116.06 43.3928 115.679 43.2237 115.428 43.103L115.412 43.1229C115.106 43.5976 114.877 44.1851 114.659 44.9075C114.562 45.2274 114.474 45.5519 114.379 45.898C114.367 45.9442 114.354 45.9907 114.341 46.0377C114.235 46.4272 114.12 46.8426 113.988 47.2521C113.795 47.8516 113.566 48.425 113.358 48.9446C113.346 48.9741 113.334 49.0035 113.323 49.0327C113.268 49.1691 113.215 49.3022 113.164 49.4328C114.389 50.2258 114.964 51.623 115.259 52.7484C115.43 53.4036 115.536 54.0785 115.598 54.7058C115.705 55.3621 115.758 56.0269 115.758 56.6846C115.758 56.8306 115.757 56.9498 115.755 57.0426C115.755 57.0426 115.755 57.0468 115.754 57.0499C115.753 57.0949 115.749 57.2757 115.714 57.4433C115.706 57.4803 115.69 57.5489 115.661 57.6317C115.642 57.6862 115.571 57.8862 115.401 58.0921C115.219 58.3125 114.671 58.7999 113.865 58.5901C113.286 58.4396 113.019 58.0128 112.972 57.9374L112.97 57.9341C112.837 57.7222 112.789 57.5204 112.785 57.5001L112.784 57.4986C112.769 57.4387 112.76 57.3888 112.756 57.3626C112.74 57.2685 112.731 57.168 112.726 57.1121C112.703 56.8487 112.682 56.3951 112.678 56.1554C112.673 55.829 112.656 55.4688 112.622 55.0974C112.533 54.586 112.401 54.0868 112.229 53.6146C111.981 52.9351 111.587 52.4997 110.993 52.1573C109.697 51.4105 108.247 50.9006 106.86 50.7401C105.339 50.5639 104.031 50.809 102.355 51.2614C101.555 51.4773 100.732 51.0039 100.516 50.2041C100.3 49.4043 100.773 48.5809 101.573 48.3651C103.361 47.8827 105.111 47.5175 107.205 47.76C108.253 47.8812 109.298 48.1468 110.299 48.5226C110.379 48.3153 110.459 48.1143 110.537 47.9206L110.56 47.8613C110.777 47.318 110.971 46.8315 111.132 46.3325C111.241 45.9937 111.341 45.6365 111.447 45.247C111.459 45.2018 111.472 45.156 111.485 45.1098C111.578 44.768 111.678 44.4014 111.787 44.0393C112.023 43.2604 112.331 42.4005 112.823 41.604C112.817 41.5519 112.808 41.4991 112.799 41.4453C112.297 40.9548 111.85 40.3347 111.508 39.5148C111.109 38.5591 110.664 37.3639 110.595 36.0528C110.583 35.8276 110.617 35.5957 110.646 35.4563L110.646 35.4525C110.654 35.4151 110.703 35.1614 110.851 34.9138C110.897 34.8368 111.012 34.6577 111.221 34.494C111.453 34.3126 111.899 34.0857 112.466 34.207C112.975 34.316 113.257 34.6418 113.366 34.7894ZM112.754 57.0063C112.754 57.0063 112.754 56.9985 112.755 56.986C112.754 57.0005 112.754 57.0063 112.754 57.0063Z" fill="#4550B7"/>
<path d="M126.109 88.8461L126.538 97.1426C126.619 97.9481 126.239 98.8204 125.538 99.1351C125.305 99.2399 124.961 99.2543 124.648 99.1841C123.204 98.7804 120.872 99.056 118.829 99.9738C117.311 100.656 112.389 103.287 115.248 109.651C117.005 113.562 120.961 114.872 124.756 113.168C127.266 112.04 129.687 109.62 131.335 105.792C131.528 105.285 131.922 104.757 132.448 104.521C132.857 104.337 133.428 104.361 134.152 104.878C136.094 106.391 137.267 107.127 139.066 108.634C139.399 108.906 139.699 109.262 139.883 109.671C140.197 110.371 140.194 111.145 139.808 112.16C137.098 118.779 132.385 123.282 127.131 125.642C117.44 129.995 105.816 127.077 101.201 116.802C95.3267 103.725 103.391 93.7183 113.023 89.3915C119.504 86.4807 125.328 86.9516 125.984 88.4112C126.036 88.5279 126.115 88.7031 126.109 88.8461Z" fill="#B7C3FF"/>
<path d="M257.232 66.4599L244.592 68.174C243.827 68.2351 243.148 67.7756 243.087 67.01L238.655 33.9777C238.594 33.2122 239.118 32.5284 239.819 32.4725L247.189 31.4995C250.548 30.1403 253.825 29.3653 257.015 29.111C259.184 28.938 261.309 29.0253 263.323 29.3142C264.3 29.493 264.724 29.9729 264.785 30.7385C264.805 30.9937 264.762 31.2539 264.723 31.578L263.59 40.721C263.47 41.6294 262.868 42.1269 262.102 42.1879C261.911 42.2032 261.651 42.1597 261.39 42.1163C260.344 41.8787 259.244 41.7738 258.16 41.8603C257.267 41.9315 256.384 42.1303 255.383 42.4669L258.396 64.9546L258.406 65.0822C258.462 65.7839 257.934 66.4039 257.232 66.4599Z" fill="#B7C3FF"/>
<path d="M253.412 122.491L253.423 122.501L253.433 122.511C256.048 124.964 259.258 126.865 262.921 127.962C275.579 131.754 288.913 124.567 292.705 111.909C296.496 99.2511 289.309 85.917 276.652 82.1254C263.994 78.3339 250.661 85.5202 246.869 98.177C245.802 101.717 245.574 105.457 246.202 109.101L246.205 109.117L246.208 109.133C246.279 109.507 246.212 109.894 246.02 110.223L243.38 114.508C243.38 114.508 243.38 114.508 243.38 114.508C243.38 114.508 243.38 114.508 243.38 114.508C242.933 115.232 242.685 116.061 242.66 116.911C242.636 117.762 242.835 118.604 243.238 119.353C243.642 120.102 244.235 120.731 244.959 121.179C245.683 121.626 246.511 121.875 247.362 121.901L247.363 121.901L252.395 122.049C252.776 122.069 253.138 122.226 253.412 122.491Z" fill="#B7C3FF" stroke="#4550B7" stroke-width="4"/>
<path fill-rule="evenodd" clip-rule="evenodd" d="M260.897 100.338C260.035 103.214 261.902 107.059 263.796 109.982C265.084 111.97 265.729 112.966 267.274 113.429C268.82 113.892 269.906 113.416 272.075 112.462C275.264 111.06 278.938 108.876 279.799 106C281.483 100.378 276.913 96.7229 271.359 99.7922C268.407 94.1749 262.581 94.7159 260.897 100.338Z" fill="#7276CC"/>
<path d="M196.574 88.0172L202.963 84.8027C203.539 84.5557 204.291 83.9307 204.392 83.4833C204.566 82.7396 203.934 81.8523 203.621 81.4541C201.185 78.2421 200.505 75.4074 201.387 71.3516C204.262 58.9325 197.256 49.6166 185.618 46.8227C184.888 46.6011 184.187 46.4777 183.426 46.3599L187.326 30.1834C187.491 29.499 187.081 28.7419 186.397 28.5769L173.953 25.5767C173.206 25.3967 172.497 25.8839 172.332 26.5683L166.795 49.5331L166.425 52.7224L170.457 53.667L168.602 57.3696L172.068 59.6363L169.058 62.4811L171.54 65.7966L167.738 67.4403L168.937 71.4047L164.802 71.6491L164.572 75.7843L160.741 74.641L160.061 77.462C159.881 78.2086 160.306 78.9035 161.053 79.0835L173.496 82.0837C174.18 82.2487 174.875 81.8237 175.055 81.0771L180.501 58.4923L181.526 58.6377C186.006 59.7177 188.001 63.0205 186.3 70.6432C183.15 83.2584 194.152 88.1877 194.482 88.2901C195.059 88.4677 195.789 88.3924 196.574 88.0172Z" fill="#B7C3FF"/>
</svg>
